<?xml version="1.0" encoding="iso-8859-1"?>
<!-- Generator: Adobe Illustrator 19.0.0, SVG Export Plug-In . SVG Version: 6.00 Build 0)  -->
<svg version="1.1" id="Capa_1" xmlns="http://www.w3.org/2000/svg" xmlns:xlink="http://www.w3.org/1999/xlink" x="0px" y="0px"
	 viewBox="0 0 512.003 512.003" style="enable-background:new 0 0 512.003 512.003;" xml:space="preserve">
<g>
	<g>
		<path d="M483.502,331.465c-4.205,0-8.196,0.923-11.792,2.564l-29.628-29.628c-1.876-1.875-4.419-2.929-7.071-2.929h-46.546
			v-35.471h68.353v0.001c4.059,10.796,14.487,18.5,26.685,18.5c15.715,0,28.5-12.785,28.5-28.5c0-15.716-12.785-28.502-28.5-28.502
			c-12.197,0-22.625,7.705-26.685,18.502h-68.353v-35.473h46.546c2.652,0,5.196-1.054,7.071-2.929l29.628-29.628
			c3.596,1.642,7.587,2.564,11.792,2.564c15.715,0,28.5-12.785,28.5-28.5c0-15.715-12.785-28.5-28.5-28.5
			c-15.715,0-28.5,12.785-28.5,28.5c0,4.205,0.923,8.197,2.565,11.793l-26.698,26.699h-42.404v-56.992c0-5.523-4.477-10-10-10
			h-56.991V81.135l26.699-26.699C351.77,56.077,355.761,57,359.966,57c15.715,0,28.5-12.785,28.5-28.5S375.681,0,359.966,0
			c-15.715,0-28.5,12.785-28.5,28.5c0,4.205,0.923,8.196,2.564,11.793l-29.628,29.628c-1.875,1.876-2.929,4.419-2.929,7.071v46.545
			h-35.472V55.185c10.796-4.06,18.5-14.487,18.5-26.685c0-15.715-12.785-28.5-28.5-28.5c-15.715,0-28.5,12.785-28.5,28.5
			c0,12.197,7.704,22.625,18.5,26.685v68.353h-35.472V76.992c0-2.652-1.054-5.195-2.929-7.071l-29.627-29.628
			c1.642-3.597,2.565-7.588,2.565-11.793c0-15.715-12.785-28.5-28.5-28.5c-15.715,0-28.5,12.785-28.5,28.5s12.785,28.5,28.5,28.5
			c4.205,0,8.196-0.923,11.792-2.564l26.699,26.699v42.402h-56.991c-5.523,0-10,4.477-10,10v56.992H81.135L54.437,163.83
			c1.642-3.596,2.565-7.588,2.565-11.793c0-15.715-12.785-28.5-28.5-28.5c-15.715,0-28.5,12.785-28.5,28.5
			c0,15.715,12.785,28.5,28.5,28.5c4.205,0,8.196-0.923,11.792-2.564l29.628,29.628c1.875,1.875,4.419,2.929,7.071,2.929h46.546
			v35.473H55.186C51.127,235.205,40.699,227.5,28.501,227.5c-15.715,0-28.5,12.786-28.5,28.502c0,15.715,12.785,28.5,28.5,28.5
			c12.197,0,22.625-7.704,26.685-18.5h68.352v35.471H76.993c-2.652,0-5.196,1.054-7.071,2.929L40.294,334.03
			c-3.596-1.642-7.587-2.564-11.792-2.564c-15.715,0-28.5,12.785-28.5,28.5c0,15.715,12.785,28.5,28.5,28.5
			c15.715,0,28.499-12.786,28.499-28.501c0-4.205-0.923-8.197-2.565-11.793l26.698-26.699h42.404v56.992c0,5.522,4.477,10,10,10
			h56.991v42.402l-26.699,26.699c-3.596-1.642-7.587-2.564-11.792-2.564c-15.715,0-28.5,12.785-28.5,28.5
			c0,15.715,12.785,28.5,28.5,28.5c15.715,0,28.5-12.785,28.5-28.5c0-4.205-0.923-8.196-2.565-11.793l29.627-29.628
			c1.875-1.876,2.929-4.419,2.929-7.071v-46.545h35.472v68.353c-10.796,4.06-18.5,14.487-18.5,26.685
			c0,15.715,12.785,28.5,28.5,28.5s28.5-12.785,28.5-28.5c0-12.197-7.704-22.625-18.5-26.685v-68.353h35.473v46.545
			c0,2.652,1.054,5.195,2.929,7.071l29.627,29.628c-1.642,3.597-2.565,7.588-2.565,11.793c0,15.715,12.785,28.5,28.5,28.5
			c15.715,0,28.5-12.785,28.5-28.5c0-15.715-12.785-28.5-28.5-28.5c-4.205,0-8.196,0.923-11.792,2.564l-26.699-26.699v-42.402
			h56.991c5.523,0,10-4.478,10-10v-56.992h42.404l26.698,26.699c-1.642,3.596-2.565,7.588-2.565,11.793
			c0,15.715,12.785,28.5,28.5,28.5c15.715,0,28.5-12.785,28.5-28.5C512.002,344.25,499.217,331.465,483.502,331.465z M483.502,247.5
			c4.687,0,8.5,3.814,8.5,8.502c0,4.686-3.813,8.5-8.5,8.5s-8.5-3.814-8.5-8.5C475.002,251.314,478.816,247.5,483.502,247.5z
			 M483.502,143.537c4.687,0,8.5,3.813,8.5,8.5c0,4.686-3.813,8.5-8.5,8.5s-8.5-3.814-8.5-8.5
			C475.002,147.351,478.816,143.537,483.502,143.537z M359.966,20c4.687,0,8.5,3.813,8.5,8.5s-3.813,8.5-8.5,8.5s-8.5-3.813-8.5-8.5
			S355.279,20,359.966,20z M152.039,37c-4.687,0-8.5-3.813-8.5-8.5s3.813-8.5,8.5-8.5c4.687,0,8.5,3.813,8.5,8.5
			S156.726,37,152.039,37z M28.501,160.537c-4.687,0-8.5-3.813-8.5-8.5s3.813-8.5,8.5-8.5s8.5,3.813,8.5,8.5
			C37.001,156.723,33.188,160.537,28.501,160.537z M28.501,264.502c-4.687,0-8.5-3.814-8.5-8.5c0-4.688,3.813-8.502,8.5-8.502
			s8.5,3.814,8.5,8.502C37.001,260.689,33.189,264.502,28.501,264.502z M28.501,368.465c-4.687,0-8.5-3.814-8.5-8.5
			c0-4.686,3.813-8.5,8.5-8.5s8.5,3.814,8.5,8.5C37.001,364.651,33.189,368.465,28.501,368.465z M152.039,492.002
			c-4.687,0-8.5-3.814-8.5-8.5c0-4.687,3.813-8.5,8.5-8.5c4.687,0,8.5,3.813,8.5,8.5
			C160.539,488.189,156.726,492.002,152.039,492.002z M359.965,475.002c4.687,0,8.5,3.813,8.5,8.5c0,4.686-3.813,8.5-8.5,8.5
			s-8.5-3.814-8.5-8.5C351.465,478.815,355.278,475.002,359.965,475.002z M256.001,20c4.687,0,8.5,3.813,8.5,8.5s-3.813,8.5-8.5,8.5
			s-8.5-3.813-8.5-8.5C247.502,23.813,251.315,20,256.001,20z M256.001,492.002c-4.687,0-8.5-3.814-8.5-8.5
			c0-4.687,3.813-8.5,8.5-8.5s8.5,3.813,8.5,8.5C264.501,488.189,260.689,492.002,256.001,492.002z M368.466,368.465h-0.001H143.539
			V143.537h224.927V368.465z M483.502,368.465c-4.687,0-8.5-3.814-8.5-8.5c0-4.686,3.813-8.5,8.5-8.5c4.688,0,8.5,3.813,8.5,8.5
			C492.002,364.651,488.189,368.465,483.502,368.465z"/>
	</g>
</g>
<g>
	<g>
		<path d="M338.984,232.061c-5.523,0-10,4.478-10,10v0.475c0,5.522,4.477,10,10,10s10-4.478,10-10v-0.475
			C348.984,236.538,344.507,232.061,338.984,232.061z"/>
	</g>
</g>
<g>
	<g>
		<path d="M338.984,161.539c-5.523,0-10,4.478-10,10v41.438c0,5.523,4.477,10,10,10s10-4.477,10-10v-41.438
			C348.984,166.017,344.507,161.539,338.984,161.539z"/>
	</g>
</g>
<g>
	<g>
		<path d="M173.019,259.467c-5.523,0-10,4.478-10,10v0.475c0,5.522,4.477,10,10,10s10-4.478,10-10v-0.475
			C183.019,263.944,178.542,259.467,173.019,259.467z"/>
	</g>
</g>
<g>
	<g>
		<path d="M173.019,289.025c-5.523,0-10,4.478-10,10v41.438c0,5.523,4.477,10,10,10s10-4.477,10-10v-41.438
			C183.019,293.503,178.542,289.025,173.019,289.025z"/>
	</g>
</g>
<g>
</g>
<g>
</g>
<g>
</g>
<g>
</g>
<g>
</g>
<g>
</g>
<g>
</g>
<g>
</g>
<g>
</g>
<g>
</g>
<g>
</g>
<g>
</g>
<g>
</g>
<g>
</g>
<g>
</g>
</svg>
