<?xml version="1.0" encoding="iso-8859-1"?>
<!-- Generator: Adobe Illustrator 19.0.0, SVG Export Plug-In . SVG Version: 6.00 Build 0)  -->
<svg version="1.1" id="Layer_1" xmlns="http://www.w3.org/2000/svg" xmlns:xlink="http://www.w3.org/1999/xlink" x="0px" y="0px"
	 viewBox="0 0 511.999 511.999" style="enable-background:new 0 0 511.999 511.999;" xml:space="preserve">
<g>
	<g>
		<path d="M344.808,422.429c-3.392-3.394-8.892-3.394-12.285-0.001l-21.986,21.988l-6.851-18.692
			c-1.02-2.784-3.39-4.855-6.286-5.494c-2.896-0.639-5.916,0.244-8.014,2.341l-27.905,27.905c-3.394,3.393-3.394,8.893-0.001,12.286
			c3.393,3.391,8.892,3.393,12.286,0l18.286-18.286l6.851,18.693c1.02,2.784,3.39,4.855,6.286,5.494
			c0.622,0.137,1.249,0.204,1.871,0.204c2.278,0,4.496-0.898,6.143-2.545l31.605-31.606
			C348.2,431.322,348.2,425.822,344.808,422.429z"/>
	</g>
</g>
<g>
	<g>
		<path d="M163.54,108c-54.408,0-98.673,44.265-98.673,98.672s44.265,98.673,98.673,98.673s98.671-44.264,98.671-98.673
			C262.212,152.265,217.948,108,163.54,108z M163.539,287.971c-44.829,0-81.299-36.47-81.299-81.299
			c0-44.828,36.47-81.299,81.299-81.299c44.828,0,81.298,36.471,81.298,81.299C244.837,251.5,208.367,287.971,163.539,287.971z"/>
	</g>
</g>
<g>
	<g>
		<path d="M163.539,43.133c-4.799,0-8.687,3.889-8.687,8.687v34.204c0,4.799,3.889,8.688,8.687,8.688
			c4.799,0,8.687-3.889,8.687-8.687V51.82C172.226,47.023,168.338,43.133,163.539,43.133z"/>
	</g>
</g>
<g>
	<g>
		<path d="M237.568,436.717h-19.49c-25.282,0-45.852-20.569-45.852-45.852V327.32c0-4.797-3.888-8.687-8.687-8.687
			s-8.687,3.889-8.687,8.687v63.545c0,34.862,28.362,63.225,63.225,63.225h19.49c4.799,0,8.687-3.889,8.687-8.687
			S242.366,436.717,237.568,436.717z"/>
	</g>
</g>
<g>
	<g>
		<path d="M279.18,91.033c-3.394-3.393-8.893-3.393-12.286,0l-24.187,24.187c-3.393,3.393-3.393,8.892,0,12.284
			c1.696,1.697,3.919,2.545,6.142,2.545c2.223,0,4.447-0.848,6.143-2.545l24.187-24.187
			C282.573,99.925,282.573,94.425,279.18,91.033z"/>
	</g>
</g>
<g>
	<g>
		<path d="M84.373,285.84c-3.393-3.391-8.893-3.393-12.286,0l-24.188,24.187c-3.394,3.393-3.394,8.893-0.001,12.286
			c1.697,1.697,3.919,2.545,6.143,2.545c2.223,0,4.447-0.848,6.142-2.545l24.188-24.187
			C87.765,294.733,87.765,289.233,84.373,285.84z"/>
	</g>
</g>
<g>
	<g>
		<path d="M318.392,197.986h-34.206c-4.797,0-8.687,3.889-8.687,8.687c0,4.797,3.888,8.687,8.687,8.687h34.206
			c4.799,0,8.687-3.889,8.687-8.687C327.078,201.875,323.19,197.986,318.392,197.986z"/>
	</g>
</g>
<g>
	<g>
		<path d="M42.892,197.986H8.687c-4.799,0-8.687,3.889-8.687,8.687c0,4.797,3.888,8.687,8.687,8.687h34.205
			c4.799,0,8.687-3.889,8.687-8.687C51.579,201.875,47.691,197.986,42.892,197.986z"/>
	</g>
</g>
<g>
	<g>
		<path d="M84.372,115.219L60.184,91.033c-3.391-3.393-8.892-3.391-12.284,0c-3.393,3.393-3.393,8.893,0.001,12.286l24.187,24.187
			c1.696,1.696,3.919,2.545,6.142,2.545c2.223,0,4.446-0.848,6.143-2.545C87.765,124.112,87.765,118.612,84.372,115.219z"/>
	</g>
</g>
<g>
	<g>
		<path d="M279.18,310.028l-24.187-24.187c-3.393-3.393-8.892-3.394-12.287,0c-3.393,3.393-3.393,8.892,0,12.284l24.187,24.187
			c1.697,1.697,3.919,2.545,6.143,2.545c2.223,0,4.447-0.848,6.143-2.545C282.573,318.92,282.573,313.42,279.18,310.028z"/>
	</g>
</g>
<g>
	<g>
		<path d="M503.313,197.986h-17.756h-8.083V149.47c0-4.797-3.888-8.687-8.687-8.687s-8.687,3.889-8.687,8.687v48.516h-43.785V149.47
			c0-4.797-3.888-8.687-8.687-8.687s-8.687,3.889-8.687,8.687v48.516h-8.083h-17.756c-4.799,0-8.687,3.889-8.687,8.687
			c0,4.797,3.888,8.687,8.687,8.687h9.069v42.909c0,27.944,20.561,51.173,47.349,55.36v77.238c0,25.282-20.569,45.852-45.852,45.852
			h-20.437c-4.799,0-8.687,3.889-8.687,8.687s3.888,8.687,8.687,8.687h20.437c34.863,0,63.225-28.363,63.225-63.225v-77.238
			c26.787-4.187,47.349-27.416,47.349-55.36v-42.909h9.069c4.799,0,8.687-3.889,8.687-8.687
			C511.999,201.875,508.111,197.986,503.313,197.986z M476.87,258.268c0,21.319-17.345,38.662-38.662,38.662
			s-38.662-17.344-38.662-38.662v-42.909h77.325V258.268z"/>
	</g>
</g>
<g>
	<g>
		<circle cx="421.707" cy="251.698" r="8.687"/>
	</g>
</g>
<g>
	<g>
		<circle cx="454.718" cy="251.698" r="8.687"/>
	</g>
</g>
<g>
</g>
<g>
</g>
<g>
</g>
<g>
</g>
<g>
</g>
<g>
</g>
<g>
</g>
<g>
</g>
<g>
</g>
<g>
</g>
<g>
</g>
<g>
</g>
<g>
</g>
<g>
</g>
<g>
</g>
</svg>
