<?xml version="1.0" encoding="iso-8859-1"?>
<!-- Generator: Adobe Illustrator 19.0.0, SVG Export Plug-In . SVG Version: 6.00 Build 0)  -->
<svg version="1.1" id="Capa_1" xmlns="http://www.w3.org/2000/svg" xmlns:xlink="http://www.w3.org/1999/xlink" x="0px" y="0px"
	 viewBox="0 0 512.003 512.003" style="enable-background:new 0 0 512.003 512.003;" xml:space="preserve">
<g>
	<g>
		<path d="M361.692,160.201l-32.128-32.129l-32.129,32.129c-17.672,17.672-17.672,46.603,0,64.275
			c8.845,8.845,20.487,13.25,32.129,13.25s23.301-4.423,32.128-13.25C379.365,206.803,379.365,177.891,361.692,160.201z
			 M348.772,211.537c-5.099,5.099-11.916,7.913-19.208,7.913c-7.292,0-14.109-2.814-19.208-7.895c-10.6-10.6-10.6-27.834,0-38.415
			l19.208-19.226l19.208,19.208c5.099,5.099,7.895,11.916,7.895,19.208C356.667,199.621,353.852,206.438,348.772,211.537z"/>
	</g>
</g>
<g>
	<g>
		<path d="M387.406,21.562L365.987,0.143l-21.419,21.419c-11.788,11.788-11.788,31.069,0,42.838
			c5.885,5.885,13.652,8.845,21.419,8.845c7.767,0,15.534-2.942,21.419-8.845C399.194,52.612,399.194,33.331,387.406,21.562z
			 M374.485,51.479c-2.248,2.248-5.263,3.491-8.498,3.491s-6.25-1.243-8.498-3.491c-4.605-4.605-4.605-12.391,0-16.996l8.498-8.498
			l8.498,8.498C379.091,39.088,379.091,46.874,374.485,51.479z"/>
	</g>
</g>
<g>
	<g>
		<path d="M277.88,76.389L256.461,54.97l-21.419,21.419c-11.788,11.788-11.788,31.068,0,42.838
			c5.885,5.885,13.652,8.845,21.419,8.845c7.767,0,15.534-2.942,21.419-8.845C289.668,107.439,289.668,88.158,277.88,76.389z
			 M264.96,106.306c-2.248,2.248-5.263,3.491-8.498,3.491c-3.235,0-6.25-1.243-8.498-3.491c-4.605-4.605-4.605-12.391,0-16.996
			l8.498-8.498l8.498,8.498C269.565,93.915,269.565,101.701,264.96,106.306z"/>
	</g>
</g>
<g>
	<g>
		<path d="M505.32,290.688c-15.991-10.837-34.833-7.767-51.519,1.864s-112.486,91.542-112.486,91.542l-94.302,0.018
			c-4.386,0-9.138-4.934-9.138-9.302c0-5.135,4.478-9.138,9.138-9.138h57.696c20.195,0,42.801-13.158,42.801-36.551
			c0-24.855-22.607-36.551-42.801-36.551c-35.034,0-41.851,0.146-41.851,0.146c-14.036,0-28.272-0.841-39.238-6.707
			c-14.62-7.475-31.471-11.715-49.454-11.715c-30.191,0-57.221,12.044-75.752,31.032L0,402.206L109.654,511.86l36.551-36.551
			h185.077c18.422,0,36.204-6.762,49.966-18.988l125.316-140.576C514.221,308.946,513.782,296.445,505.32,290.688z M368.363,443.29
			c-10.326,8.864-23.466,13.743-37.081,13.743l-193.922,0.036l-27.706,28.949l-83.702-83.702l85.548-84.232
			c15.827-16.21,38.653-25.513,62.667-25.513c14.474,0,28.711,3.344,40.828,9.522c14.584,7.804,31.617,8.882,47.864,8.882
			c0,0,7-0.146,41.851-0.146c0.238,0,24.526,0.201,24.526,18.276c0,12.464-14.639,18.276-24.526,18.276h-59.213
			c-12.738,0-26.189,9.229-26.189,28.638c0,14.438,11.678,26.189,26.189,26.189l102.307-0.018c0,0,107.643-89.733,116.324-94.485
			c8.681-4.752,19.263-7.895,28.218-3.491L368.363,443.29z"/>
	</g>
</g>
<g>
</g>
<g>
</g>
<g>
</g>
<g>
</g>
<g>
</g>
<g>
</g>
<g>
</g>
<g>
</g>
<g>
</g>
<g>
</g>
<g>
</g>
<g>
</g>
<g>
</g>
<g>
</g>
<g>
</g>
</svg>
